<?xml version="1.0" encoding="utf-8"?>
<!-- Generator: Adobe Illustrator 27.2.0, SVG Export Plug-In . SVG Version: 6.00 Build 0)  -->
<svg version="1.1" id="Layer_1" xmlns="http://www.w3.org/2000/svg" xmlns:xlink="http://www.w3.org/1999/xlink" x="0px" y="0px"
	 viewBox="0 0 450 450" style="enable-background:new 0 0 450 450;" xml:space="preserve">
<style type="text/css">
	.st0{fill:#545BFE;}
	.st1{fill:#FFFFFF;filter:url(#Adobe_OpacityMaskFilter);}
	.st2{mask:url(#mask0_44_10_00000011718897994879406950000010177446124769795482_);}
	.st3{fill-rule:evenodd;clip-rule:evenodd;fill:#4FCDF9;}
	.st4{fill-rule:evenodd;clip-rule:evenodd;fill:#FFFFFF;}
	.st5{opacity:7.757570e-02;enable-background:new    ;}
</style>
<circle class="st0" cx="225" cy="225" r="225"/>
<defs>
	<filter id="Adobe_OpacityMaskFilter" filterUnits="userSpaceOnUse" x="-41" y="-33" width="722" height="528">
		<feColorMatrix  type="matrix" values="1 0 0 0 0  0 1 0 0 0  0 0 1 0 0  0 0 0 1 0"/>
	</filter>
</defs>
<mask maskUnits="userSpaceOnUse" x="-41" y="-33" width="722" height="528" id="mask0_44_10_00000011718897994879406950000010177446124769795482_">
	<circle class="st1" cx="225" cy="225" r="225"/>
</mask>
<g class="st2">
	<path class="st3" d="M-29,15c-6.6,0-12,5.4-12,12s5.4,12,12,12h205c6.6,0,12-5.4,12-12s-5.4-12-12-12H-29z M1,75
		c0-6.6,5.4-12,12-12h169c6.6,0,12,5.4,12,12s-5.4,12-12,12H13C6.4,87,1,81.6,1,75z M-13,123c0-6.6,5.4-12,12-12h119
		c6.6,0,12,5.4,12,12s-5.4,12-12,12H-1C-7.6,135-13,129.6-13,123z M14,183c-6.6,0-12,5.4-12,12s5.4,12,12,12h35c6.6,0,12-5.4,12-12
		s-5.4-12-12-12H14z M91,219c0-6.6,5.4-12,12-12h49c6.6,0,12,5.4,12,12s-5.4,12-12,12h-49C96.4,231,91,225.6,91,219z M103,255
		c-6.6,0-12,5.4-12,12s5.4,12,12,12h102c6.6,0,12-5.4,12-12s-5.4-12-12-12H103z M127,363c0-6.6,5.4-12,12-12h29c6.6,0,12,5.4,12,12
		s-5.4,12-12,12h-29C132.4,375,127,369.6,127,363z M115,303c-6.6,0-12,5.4-12,12s5.4,12,12,12h84c6.6,0,12-5.4,12-12s-5.4-12-12-12
		H115z M86,171c0-6.6,5.4-12,12-12c6.6,0,12,5.4,12,12s-5.4,12-12,12C91.4,183,86,177.6,86,171z"/>
	<path class="st3" d="M386,39c-6.6,0-12,5.4-12,12s5.4,12,12,12h24c6.6,0,12-5.4,12-12s-5.4-12-12-12H386z M449,63
		c-6.6,0-12,5.4-12,12s5.4,12,12,12h211c6.6,0,12-5.4,12-12s-5.4-12-12-12H449z M323,99c0-6.6,5.4-12,12-12h24c6.6,0,12,5.4,12,12
		c0,6.6-5.4,12-12,12h-24C328.4,111,323,105.6,323,99z M334,135c-6.6,0-12,5.4-12,12s5.4,12,12,12h56c6.6,0,12-5.4,12-12
		s-5.4-12-12-12H334z M448,135c-6.6,0-12,5.4-12,12s5.4,12,12,12h14c6.6,0,12-5.4,12-12s-5.4-12-12-12H448z M483,123
		c0-6.6,5.4-12,12-12h174c6.6,0,12,5.4,12,12s-5.4,12-12,12H495C488.4,135,483,129.6,483,123z M382,99c0-6.6,5.4-12,12-12h3
		c6.6,0,12,5.4,12,12c0,6.6-5.4,12-12,12h-3C387.4,111,382,105.6,382,99z M480,303c-6.6,0-12,5.4-12,12s5.4,12,12,12s12-5.4,12-12
		S486.6,303,480,303z M296,195c0-6.6,5.4-12,12-12h173c6.6,0,12,5.4,12,12s-5.4,12-12,12H308C301.4,207,296,201.6,296,195z M342,231
		c-6.6,0-12,5.4-12,12s5.4,12,12,12h129c6.6,0,12-5.4,12-12s-5.4-12-12-12H342z M378,291c0-6.6,5.4-12,12-12h64c6.6,0,12,5.4,12,12
		s-5.4,12-12,12h-64C383.4,303,378,297.6,378,291z M394,327c-6.6,0-12,5.4-12,12s5.4,12,12,12h36c6.6,0,12-5.4,12-12s-5.4-12-12-12
		H394z"/>
	<path class="st4" d="M196-21c0-6.6,5.4-12,12-12h62c6.6,0,12,5.4,12,12s-5.4,12-12,12h-62C201.4-9,196-14.4,196-21z M339,123
		c0-6.6,5.4-12,12-12h62c6.6,0,12,5.4,12,12s-5.4,12-12,12h-62C344.4,135,339,129.6,339,123z M318-33c-6.6,0-12,5.4-12,12
		s5.4,12,12,12h156c6.6,0,12-5.4,12-12s-5.4-12-12-12H318z M279,75c0-6.6,5.4-12,12-12h76c6.6,0,12,5.4,12,12s-5.4,12-12,12h-76
		C284.4,87,279,81.6,279,75z M175,15c-6.6,0-12,5.4-12,12s5.4,12,12,12h257c6.6,0,12-5.4,12-12s-5.4-12-12-12H175z M403,75
		c0-6.6,5.4-12,12-12h20c6.6,0,12,5.4,12,12s-5.4,12-12,12h-20C408.4,87,403,81.6,403,75z M223,63c-6.6,0-12,5.4-12,12s5.4,12,12,12
		h20c6.6,0,12-5.4,12-12s-5.4-12-12-12H223z"/>
	<path class="st4" d="M95,279c-6.6,0-12,5.4-12,12s5.4,12,12,12h118c6.6,0,12-5.4,12-12s-5.4-12-12-12H95z M81,375
		c-6.6,0-12,5.4-12,12s5.4,12,12,12h76c6.6,0,12-5.4,12-12s-5.4-12-12-12H81z M5,339c0-6.6,5.4-12,12-12h163c6.6,0,12,5.4,12,12
		s-5.4,12-12,12H17C10.4,351,5,345.6,5,339z M228,327c-6.6,0-12,5.4-12,12s5.4,12,12,12h20c6.6,0,12-5.4,12-12s-5.4-12-12-12H228z"
		/>
	<path class="st4" d="M347,375c-6.6,0-12,5.4-12,12s5.4,12,12,12h118c6.6,0,12-5.4,12-12s-5.4-12-12-12H347z M333,471
		c-6.6,0-12,5.4-12,12s5.4,12,12,12h76c6.6,0,12-5.4,12-12s-5.4-12-12-12H333z M257,435c0-6.6,5.4-12,12-12h163c6.6,0,12,5.4,12,12
		s-5.4,12-12,12H269C262.4,447,257,441.6,257,435z M480,423c-6.6,0-12,5.4-12,12s5.4,12,12,12h20c6.6,0,12-5.4,12-12s-5.4-12-12-12
		H480z"/>
	<rect x="225.5" y="-25" class="st5" width="250.5" height="500"/>
</g>
<circle class="st0" cx="225" cy="225" r="225"/>
</svg>
