<svg width="416" height="416" viewBox="0 0 416 416" fill="none" xmlns="http://www.w3.org/2000/svg">
<circle cx="208" cy="208" r="208" fill="#FCCB6B"/>
<mask id="mask0_0_7452" style="mask-type:luminance" maskUnits="userSpaceOnUse" x="0" y="0" width="416" height="416">
<circle cx="208" cy="208" r="208" fill="white"/>
</mask>
<g mask="url(#mask0_0_7452)">
<path fill-rule="evenodd" clip-rule="evenodd" d="M414.369 408.472C409.683 403.785 402.085 403.785 397.399 408.472C392.712 413.158 392.712 420.756 397.399 425.442L507.707 535.751C512.394 540.437 519.992 540.437 524.678 535.751C529.364 531.065 529.364 523.467 524.678 518.78L414.369 408.472ZM258.806 252.908C254.119 248.222 246.521 248.222 241.835 252.908C237.149 257.594 237.149 265.192 241.835 269.879L296.989 325.033L296.982 325.04C301.319 329.748 301.204 337.082 296.636 341.65C292.068 346.218 284.733 346.333 280.026 341.996L280.019 342.004L166.882 228.867C162.195 224.18 154.598 224.18 149.911 228.867C145.225 233.553 145.225 241.151 149.911 245.837L331.638 427.564C336.324 432.25 343.922 432.25 348.608 427.564C353.295 422.877 353.295 415.279 348.608 410.593L313.96 375.945C309.274 371.258 309.274 363.66 313.96 358.974C318.646 354.288 326.244 354.288 330.931 358.974L352.144 380.187C356.83 384.874 364.428 384.874 369.114 380.187C373.801 375.501 373.801 367.903 369.114 363.217L258.806 252.908ZM335.88 465.747C331.194 461.061 323.596 461.061 318.91 465.747C314.223 470.434 314.223 478.032 318.91 482.718L370.529 534.337C375.215 539.023 382.813 539.023 387.499 534.337C392.185 529.65 392.185 522.052 387.499 517.366L335.88 465.747ZM132.941 262.808C128.254 258.121 120.656 258.121 115.97 262.808C111.284 267.494 111.284 275.092 115.97 279.778L167.589 331.397C172.275 336.083 179.873 336.083 184.559 331.397C189.246 326.711 189.246 319.113 184.559 314.426L132.941 262.808ZM-62.2208 84.6167C-57.5345 79.9304 -49.9366 79.9304 -45.2503 84.6167L72.1295 201.996C76.8158 206.683 76.8158 214.281 72.1295 218.967C67.4432 223.653 59.8452 223.653 55.1589 218.967L-62.2208 101.587C-66.9071 96.901 -66.9071 89.303 -62.2208 84.6167ZM131.526 159.57C126.84 154.884 119.242 154.884 114.556 159.57C109.87 164.256 109.87 171.854 114.556 176.541L120.92 182.905C125.606 187.591 125.606 195.189 120.92 199.875C116.234 204.561 108.636 204.561 103.949 199.875L-77.7772 18.1487C-82.4635 13.4624 -82.4635 5.86442 -77.7772 1.17813C-73.0909 -3.50816 -65.4929 -3.50818 -60.8066 1.17813L80.6148 142.599L80.6217 142.592C85.3294 146.929 92.6638 146.814 97.2318 142.246C101.8 137.678 101.915 130.344 97.5778 125.636L97.5853 125.629L80.6148 108.658C75.9284 103.972 75.9285 96.3741 80.6148 91.6878C85.301 87.0015 92.899 87.0015 97.5853 91.6878L207.894 201.996C212.58 206.683 212.58 214.281 207.894 218.967C203.208 223.653 195.61 223.653 190.923 218.967L131.526 159.57ZM-70.7061 -59.6331C-66.0198 -64.3193 -58.4218 -64.3194 -53.7355 -59.6331L56.5731 50.6756C61.2594 55.3619 61.2594 62.9599 56.5731 67.6462C51.8868 72.3325 44.2889 72.3325 39.6026 67.6462L-70.7061 -42.6625C-75.3924 -47.3488 -75.3924 -54.9468 -70.7061 -59.6331Z" fill="#ECB55A"/>
</g>
<mask id="mask1_0_7452" style="mask-type:luminance" maskUnits="userSpaceOnUse" x="0" y="0" width="416" height="416">
<circle cx="208" cy="208" r="208" fill="white"/>
</mask>
<g mask="url(#mask1_0_7452)">
<rect opacity="0.0775757" x="208" width="209.089" height="416" fill="black"/>
</g>
</svg>
